<svg id="SvgjsSvg1040" width="288" height="288" xmlns="http://www.w3.org/2000/svg" version="1.1" xmlns:xlink="http://www.w3.org/1999/xlink" xmlns:svgjs="http://svgjs.com/svgjs"><defs id="SvgjsDefs1041"></defs><g id="SvgjsG1042" transform="matrix(0.9167,0,0,0.9167,11.971121610116967,11.995199364471432)"><svg xmlns="http://www.w3.org/2000/svg" width="288" height="288" preserveAspectRatio="xMidYMid" viewBox="0 0 27.875 25"><path fill="#dc0606" fill-rule="evenodd" stroke="#bd9a9a" d="M13.909,24.500 L13.324,24.002 C13.207,23.902 13.090,23.804 12.974,23.706 L12.783,23.545 C12.393,23.218 11.994,22.882 11.608,22.538 C11.162,22.140 10.715,21.742 10.268,21.345 L10.251,21.331 C8.762,20.007 7.222,18.639 5.734,17.260 C4.229,15.867 3.046,14.491 2.116,13.054 C1.186,11.618 0.663,10.230 0.517,8.811 C0.163,5.375 2.097,2.259 5.331,1.058 C6.279,0.706 7.272,0.527 8.281,0.527 C10.371,0.527 12.355,1.283 13.908,2.663 C14.453,2.171 15.017,1.788 15.624,1.495 C16.993,0.835 18.347,0.500 19.648,0.500 C21.327,0.500 22.943,1.055 24.450,2.148 C26.036,3.298 26.983,4.907 27.266,6.929 C27.554,8.983 27.042,10.986 25.701,13.054 C24.723,14.564 23.474,16.003 21.882,17.453 C20.233,18.955 18.537,20.450 16.897,21.895 C16.208,22.500 15.521,23.106 14.836,23.713 C14.759,23.781 14.680,23.848 14.597,23.918 L13.909,24.500 Z" class="colorfff svgShape colorStrokebbb svgStroke" stroke-width="1"></path></svg></g></svg>